<svg xmlns="http://www.w3.org/2000/svg" viewBox="0 0 512 512" role="img" aria-label="Réapprovisionnement">
  <defs>
    <linearGradient id="bg" x1="0" y1="0" x2="1" y2="1"><stop offset="0" stop-color="#171846"/><stop offset=".58" stop-color="#5b2fd6"/><stop offset="1" stop-color="#20a7e8"/></linearGradient>
    <linearGradient id="box" x1="0" y1="0" x2="1" y2="1"><stop offset="0" stop-color="#9b65ff"/><stop offset="1" stop-color="#4d2bb8"/></linearGradient>
    <filter id="shadow" x="-20%" y="-20%" width="140%" height="150%"><feDropShadow dx="0" dy="18" stdDeviation="14" flood-color="#03041a" flood-opacity=".35"/></filter>
  </defs>
  <rect x="18" y="18" width="476" height="476" rx="82" fill="url(#bg)"/>
  <rect x="38" y="38" width="436" height="436" rx="65" fill="none" stroke="#b9a5ff" stroke-opacity=".55" stroke-width="6"/>
  <g filter="url(#shadow)">
    <rect x="204" y="86" width="200" height="228" rx="24" fill="#fbfbff" stroke="#202250" stroke-width="8"/>
    <rect x="258" y="58" width="92" height="54" rx="14" fill="#d8d9ef" stroke="#202250" stroke-width="8"/>
    <circle cx="304" cy="79" r="13" fill="#777aa5"/>
    <path d="M238 156l18 18 34-44" fill="none" stroke="#0f70d7" stroke-width="12" stroke-linecap="round" stroke-linejoin="round"/>
    <path d="M238 214l18 18 34-44" fill="none" stroke="#0f70d7" stroke-width="12" stroke-linecap="round" stroke-linejoin="round"/>
    <rect x="232" y="270" width="118" height="46" fill="#171846"/>
    <g fill="#fbfbff"><rect x="241" y="270" width="6" height="46"/><rect x="260" y="270" width="10" height="46"/><rect x="286" y="270" width="8" height="46"/><rect x="312" y="270" width="12" height="46"/><rect x="338" y="270" width="6" height="46"/></g>
    <rect x="78" y="204" width="104" height="92" rx="10" fill="url(#box)"/>
    <rect x="126" y="158" width="120" height="104" rx="10" fill="url(#box)"/>
    <path d="M162 285c-32 0-58 25-58 56 0 42 58 103 58 103s58-61 58-103c0-31-26-56-58-56z" fill="#6d31e6" stroke="#fff" stroke-width="10"/>
    <circle cx="162" cy="340" r="22" fill="#0a0b2b" stroke="#d7f2ff" stroke-width="8"/>
    <circle cx="385" cy="252" r="67" fill="#c7f3ff" stroke="#202250" stroke-width="14"/>
    <path d="M432 304l45 45" stroke="#5b2fd6" stroke-width="22" stroke-linecap="round"/>
  </g>
  <text x="256" y="430" text-anchor="middle" font-family="DejaVu Sans, Arial, sans-serif" font-size="42" font-weight="800" fill="#fff" stroke="#20134d" stroke-width="5" paint-order="stroke">Réapprovisionnement</text>
</svg>
